<svg width="800" height="800" viewBox="0 0 800 800" fill="none" xmlns="http://www.w3.org/2000/svg">
<g id="aws">
<path id="Vector" d="M654.475 494.416C682.635 490.987 744.736 483.605 755.792 497.845C766.843 511.824 743.424 570.64 732.896 596.747C729.739 604.661 736.581 607.824 743.685 601.76C790 562.725 802.107 481.227 792.635 469.36C783.157 457.76 701.845 447.733 652.368 482.549C644.736 488.085 646.053 495.472 654.475 494.416Z" fill="#FF9900"/>
<path id="Vector_2" d="M399.211 637.099C507.371 637.099 633.157 603.072 719.739 538.987C733.947 528.437 721.579 512.352 707.104 518.944C610 560.085 504.475 580.133 408.421 580.133C266.053 580.133 128.421 540.837 16.848 475.957C7.10397 470.155 -0.261361 480.176 7.89331 487.563C111.056 580.923 247.632 637.099 399.211 637.099Z" fill="#FF9900"/>
<path id="Vector_3" d="M227.371 335.12C227.371 344.88 228.421 352.789 230.261 358.592C232.601 365.119 235.417 371.465 238.688 377.579C240 379.691 240.528 381.803 240.528 383.648C240.528 386.288 238.949 388.928 235.525 391.563L218.949 402.64C216.581 404.219 214.208 405.013 212.107 405.013C209.472 405.013 206.843 403.691 204.213 401.317C200.665 397.498 197.492 393.348 194.736 388.923C191.794 383.855 189.071 378.662 186.576 373.36C166.053 397.627 140.261 409.76 109.211 409.76C87.104 409.76 69.4773 403.429 56.5813 390.773C43.6853 378.112 37.104 361.227 37.104 340.133C37.104 317.712 44.9973 299.515 61.0507 285.803C77.104 272.085 98.4213 265.232 125.531 265.232C134.475 265.232 143.685 266.021 153.424 267.339C163.157 268.661 173.157 270.768 183.685 273.141V253.888C183.685 233.845 179.472 219.867 171.312 211.691C162.896 203.515 148.683 199.563 128.421 199.563C119.211 199.563 109.739 200.613 100 202.987C90.3251 205.298 80.8273 208.296 71.5787 211.957C68.5863 213.3 65.5095 214.445 62.368 215.387C60.528 215.909 59.2107 216.176 58.1547 216.176C54.4747 216.176 52.6293 213.541 52.6293 208V195.077C52.6293 190.859 53.1627 187.691 54.4747 185.851C55.7867 184 58.1547 182.155 61.84 180.304C71.0507 175.557 82.1067 171.605 94.9973 168.437C107.893 165.013 121.584 163.424 136.053 163.424C167.371 163.424 190.261 170.549 204.997 184.789C219.472 199.029 226.843 220.661 226.843 249.669V335.12H227.371ZM120.528 375.211C129.211 375.211 138.16 373.627 147.632 370.464C157.104 367.296 165.525 361.493 172.629 353.584C176.843 348.571 180 343.035 181.579 336.704C183.157 330.373 184.208 322.725 184.208 313.76V302.683C176.229 300.737 168.147 299.242 160 298.203C151.796 297.156 143.534 296.626 135.264 296.613C117.632 296.613 104.736 300.043 96.0533 307.163C87.3707 314.288 83.1573 324.309 83.1573 337.493C83.1573 349.888 86.3147 359.12 92.896 365.451C99.2107 372.043 108.421 375.211 120.523 375.211H120.528ZM331.84 403.691C327.104 403.691 323.947 402.901 321.84 401.056C319.739 399.472 317.893 395.776 316.315 390.768L254.475 186.901C252.896 181.621 252.107 178.197 252.107 176.352C252.107 172.133 254.208 169.76 258.421 169.76H284.208C289.211 169.76 292.635 170.549 294.475 172.395C296.581 173.979 298.155 177.675 299.739 182.683L343.952 357.275L385.003 182.683C386.315 177.403 387.893 173.979 390 172.395C392.107 170.811 395.787 169.76 400.528 169.76H421.579C426.581 169.76 430 170.549 432.107 172.395C434.213 173.979 436.053 177.675 437.104 182.683L478.683 359.387L524.213 182.683C525.787 177.403 527.627 173.979 529.472 172.395C531.579 170.811 534.997 169.76 539.739 169.76H564.208C568.421 169.76 570.789 171.867 570.789 176.352C570.789 177.669 570.528 178.987 570.261 180.571C569.85 182.819 569.234 185.026 568.421 187.163L505.003 391.04C503.419 396.315 501.579 399.739 499.472 401.323C497.371 402.907 493.947 403.963 489.472 403.963H466.843C461.84 403.963 458.416 403.168 456.315 401.323C454.213 399.477 452.368 396.048 451.317 390.773L410.528 220.667L370 390.512C368.683 395.787 367.104 399.216 364.997 401.061C362.896 402.907 359.211 403.696 354.475 403.696L331.84 403.691ZM670 410.816C656.315 410.816 642.629 409.232 629.472 406.069C616.315 402.901 606.053 399.472 599.211 395.515C594.997 393.141 592.107 390.501 591.051 388.133C590.027 385.804 589.49 383.291 589.472 380.747V367.296C589.472 361.76 591.579 359.12 595.525 359.12C597.104 359.12 598.683 359.387 600.261 359.909C601.84 360.443 604.208 361.493 606.843 362.549C616.137 366.645 625.842 369.738 635.792 371.776C646.315 373.888 656.581 374.944 667.104 374.944C683.685 374.944 696.581 372.043 705.525 366.24C714.475 360.437 719.211 352 719.211 341.184C719.211 333.803 716.843 327.739 712.107 322.725C707.371 317.712 698.421 313.232 685.525 309.013L647.371 297.141C628.16 291.077 613.947 282.112 605.264 270.24C596.581 258.635 592.107 245.712 592.107 232C592.107 220.923 594.475 211.163 599.211 202.725C603.947 194.288 610.261 186.901 618.16 181.099C626.053 175.035 634.997 170.549 645.525 167.387C656.053 164.219 667.104 162.901 678.683 162.901C684.475 162.901 690.528 163.168 696.315 163.957C702.368 164.747 707.893 165.803 713.419 166.859C718.683 168.176 723.685 169.493 728.421 171.072C733.157 172.661 736.843 174.24 739.472 175.824C743.157 177.936 745.792 180.043 747.371 182.416C748.949 184.528 749.739 187.429 749.739 191.12V203.52C749.739 209.061 747.632 211.963 743.685 211.963C741.579 211.963 738.16 210.907 733.685 208.795C718.683 201.941 701.84 198.512 683.157 198.512C668.16 198.512 656.315 200.885 648.16 205.893C640 210.907 635.792 218.555 635.792 229.371C635.792 236.752 638.421 243.077 643.685 248.091C648.949 253.104 658.683 258.117 672.629 262.597L710 274.469C728.949 280.533 742.629 288.976 750.789 299.787C758.949 310.597 762.896 322.992 762.896 336.709C762.896 348.048 760.528 358.336 756.053 367.301C751.317 376.267 745.003 384.181 736.843 390.512C728.683 397.104 718.949 401.851 707.632 405.28C695.792 408.971 683.419 410.816 670 410.816Z" fill="#252F3E"/>
</g>
</svg>
