<svg width="800" height="800" viewBox="0 0 800 800" fill="none" xmlns="http://www.w3.org/2000/svg">
<g id="pos">
<g id="Group">
<path id="Vector" d="M784.872 479.047C780.221 464.962 768.037 455.149 752.278 452.793C744.848 451.684 736.338 452.157 726.27 454.234C708.719 457.855 695.698 459.232 686.195 459.501C722.063 398.94 751.23 329.878 768.021 264.868C795.17 159.752 780.662 111.865 763.708 90.2028C718.84 32.872 653.377 2.07103 574.398 1.12686C532.271 0.612674 495.284 8.93102 475.992 14.9113C458.028 11.7438 438.711 9.97372 418.443 9.64586C380.456 9.0403 346.888 17.321 318.207 34.3411C302.324 28.9735 276.843 21.4041 247.412 16.5721C178.192 5.2081 122.406 14.0639 81.6008 42.8906C32.1888 77.7943 9.28152 138.436 13.5186 223.133C14.8623 250.025 29.9063 331.841 53.5911 409.437C67.2036 454.035 81.719 491.072 96.7343 519.526C118.027 559.875 140.811 583.637 166.389 592.168C180.728 596.946 206.775 600.289 234.174 577.475C237.646 581.678 242.278 585.858 248.428 589.739C256.236 594.664 265.785 598.688 275.32 601.072C309.688 609.665 341.879 607.515 369.342 595.474C369.511 600.357 369.642 605.025 369.753 609.054C369.935 615.591 370.114 622 370.355 627.993C371.981 668.522 374.739 700.034 382.908 722.082C383.356 723.296 383.96 725.143 384.598 727.102C388.672 739.582 395.489 760.472 412.826 776.834C430.783 793.781 452.501 798.98 472.391 798.978C482.366 798.978 491.885 797.67 500.232 795.881C529.992 789.504 563.789 779.787 588.237 744.976C611.35 712.067 622.587 662.5 624.62 584.398C624.884 582.191 625.127 580.082 625.362 578.072C625.52 576.716 625.681 575.329 625.844 573.946L631.29 574.424L632.693 574.519C663.003 575.901 700.064 569.472 722.824 558.9C740.81 550.553 798.442 520.128 784.872 479.047Z" fill="black"/>
<path id="Vector_2" d="M733.047 487.038C642.927 505.627 636.731 475.115 636.731 475.115C731.884 333.923 771.661 154.702 737.334 110.838C643.688 -8.81283 481.582 47.7745 478.876 49.2436L478.006 49.3995C460.201 45.7034 440.275 43.5015 417.88 43.1361C377.102 42.4678 346.17 53.8265 322.698 71.6259C322.698 71.6259 33.5164 -47.5057 46.9658 221.456C49.827 278.676 128.978 654.406 223.385 540.918C257.891 499.419 291.231 464.331 291.231 464.331C307.791 475.332 327.614 480.943 348.397 478.927L350.011 477.557C349.509 482.709 349.739 487.749 350.658 493.715C326.337 520.888 333.484 525.659 284.865 535.667C235.67 545.805 264.57 563.856 283.439 568.573C306.314 574.293 359.236 582.397 394.994 532.34L393.568 538.051C403.098 545.684 409.789 587.698 408.668 625.784C407.546 663.871 406.797 690.019 414.306 710.443C421.814 730.868 429.298 776.822 493.211 763.127C546.616 751.682 574.291 722.024 578.141 672.553C580.873 637.382 587.056 642.582 587.447 611.138L592.406 596.251C598.125 548.575 593.314 533.194 626.217 540.348L634.212 541.051C658.429 542.152 690.124 537.156 708.726 528.509C748.783 509.92 772.539 478.882 733.044 487.038H733.047Z" fill="#336791"/>
<path id="Vector_3" d="M339.625 247.046C331.506 245.915 324.15 246.961 320.428 249.778C318.334 251.363 317.687 253.2 317.513 254.465C317.046 257.813 319.393 261.514 320.833 263.424C324.911 268.83 330.87 272.545 336.768 273.364C337.622 273.482 338.471 273.54 339.317 273.54C349.153 273.54 358.093 265.882 358.881 260.23C359.867 253.151 349.59 248.432 339.625 247.046Z" fill="white"/>
<path id="Vector_4" d="M608.668 247.27C607.894 241.721 598.017 240.139 588.647 241.441C579.291 242.746 570.217 246.969 570.975 252.53C571.584 256.855 579.39 264.238 588.634 264.236C589.414 264.236 590.202 264.184 590.996 264.073C597.166 263.218 601.693 259.3 603.843 257.041C607.12 253.601 609.014 249.763 608.668 247.27Z" fill="white"/>
<path id="Vector_5" d="M763.037 484.925C759.6 474.534 748.541 471.189 730.165 474.986C675.604 486.246 656.064 478.445 649.647 473.721C692.057 409.113 726.945 331.019 745.766 258.153C754.682 223.638 759.607 191.585 760.009 165.46C760.453 136.78 755.571 115.71 745.497 102.837C704.883 50.9419 645.279 23.106 573.126 22.341C523.525 21.7838 481.616 34.479 473.491 38.0479C456.381 33.7929 437.729 31.1807 417.425 30.8475C380.187 30.2455 348.001 39.1605 321.351 57.3307C309.776 53.0238 279.86 42.7544 243.277 36.8618C180.027 26.6767 129.768 34.393 93.9 59.8031C51.1026 90.124 31.3449 144.323 35.1736 220.892C36.4617 246.655 51.1384 325.902 74.3036 401.798C104.795 501.688 137.937 558.237 172.812 569.868C176.894 571.23 181.602 572.183 186.79 572.183C199.512 572.183 215.108 566.448 231.336 546.939C258.291 514.512 283.457 487.339 292.734 477.465C306.443 484.825 321.502 488.933 336.907 489.345C336.934 489.748 336.975 490.152 337.011 490.553C333.921 494.218 331.386 497.431 329.225 500.174C318.553 513.722 316.331 516.542 281.976 523.617C272.204 525.632 246.246 530.982 245.868 549.175C245.454 569.053 276.547 577.402 280.091 578.287C292.437 581.377 304.329 582.902 315.672 582.902C343.259 582.9 367.533 573.835 386.934 556.293C386.336 627.16 389.292 696.99 397.8 718.267C404.767 735.683 421.793 778.251 475.571 778.248C483.459 778.248 492.147 777.33 501.701 775.283C557.825 763.249 582.196 738.444 591.625 683.758C596.67 654.531 605.328 584.738 609.399 547.303C617.993 549.983 629.058 551.211 641.019 551.209C665.965 551.209 694.748 545.909 712.8 537.53C733.078 528.113 769.673 505.002 763.037 484.925ZM629.382 231.953C629.196 243.006 627.675 253.038 626.063 263.512C624.328 274.776 622.533 286.421 622.082 300.559C621.636 314.316 623.354 328.62 625.016 342.451C628.374 370.389 631.819 399.153 618.481 427.536C616.408 423.854 614.406 419.837 612.572 415.389C610.915 411.37 607.315 404.915 602.333 395.98C582.941 361.206 537.531 279.771 560.777 246.54C567.7 236.647 585.272 226.48 629.382 231.953ZM575.916 44.7215C640.564 46.1494 691.701 70.3341 727.909 116.6C755.679 152.088 725.1 313.564 636.576 452.869C635.701 451.758 634.811 450.636 633.89 449.486C633.523 449.026 633.148 448.558 632.77 448.085C655.645 410.306 651.172 372.928 647.191 339.787C645.555 326.187 644.011 313.341 644.403 301.277C644.81 288.485 646.501 277.519 648.135 266.912C650.147 253.841 652.191 240.318 651.627 224.375C652.048 222.703 652.218 220.727 651.998 218.382C650.557 203.093 633.103 157.341 597.526 115.925C578.068 93.2754 549.687 67.9262 510.939 50.8291C527.606 47.3749 550.398 44.1536 575.916 44.7215ZM214.164 532.661C196.286 554.156 183.938 550.037 179.878 548.684C153.422 539.859 122.727 483.945 95.6629 395.278C72.2451 318.557 58.5592 241.409 57.477 219.776C54.0569 151.359 70.6416 103.676 106.773 78.0522C165.572 36.353 262.247 61.3116 301.092 73.971C300.533 74.521 299.952 75.037 299.399 75.596C235.656 139.973 237.168 249.962 237.324 256.684C237.318 259.279 237.535 262.951 237.834 268.004C238.931 286.502 240.971 320.932 235.52 359.925C230.451 396.158 241.62 431.622 266.158 457.224C268.698 459.874 271.35 462.362 274.089 464.704C263.166 476.401 239.429 502.266 214.164 532.661ZM282.282 441.771C262.505 421.138 253.523 392.435 257.637 363.017C263.395 321.826 261.268 285.953 260.127 266.681C259.968 263.985 259.826 261.622 259.742 259.757C269.055 251.501 312.209 228.377 342.983 235.429C357.029 238.647 365.584 248.208 369.142 264.659C387.556 349.818 371.58 385.313 358.743 413.835C356.097 419.712 353.598 425.266 351.462 431.013L349.809 435.454C345.62 446.686 341.723 457.127 339.308 467.044C318.286 466.979 297.833 458 282.282 441.771ZM285.509 556.621C279.371 555.088 273.849 552.423 270.61 550.214C273.315 548.941 278.131 547.21 286.481 545.49C326.898 537.168 333.138 531.297 346.768 513.99C349.895 510.024 353.437 505.525 358.342 500.046L358.347 500.039C365.655 491.859 368.997 493.246 375.057 495.759C379.97 497.793 384.754 503.949 386.694 510.724C387.611 513.924 388.643 519.999 385.27 524.724C356.796 564.59 315.306 564.078 285.509 556.621ZM497.02 753.447C447.577 764.04 430.072 738.813 418.536 709.974C411.09 691.354 407.431 607.395 410.027 514.678C410.062 513.444 409.886 512.253 409.546 511.133C409.25 508.97 408.795 506.783 408.164 504.581C404.302 491.09 394.894 479.805 383.607 475.127C379.123 473.269 370.89 469.86 360.999 472.39C363.109 463.699 366.768 453.886 370.733 443.258L372.397 438.787C374.271 433.747 376.62 428.526 379.106 423.001C392.54 393.157 410.938 352.282 390.97 259.938C383.49 225.351 358.516 208.462 320.654 212.384C297.955 214.732 277.19 223.891 266.833 229.142C264.606 230.271 262.569 231.36 260.666 232.423C263.556 197.573 274.48 132.447 315.335 91.2419C341.057 65.2997 375.315 52.4881 417.056 53.1778C499.299 54.5251 552.038 96.7313 581.801 131.902C607.448 162.21 621.336 192.739 626.879 209.204C585.198 204.967 556.85 213.195 542.478 233.739C511.215 278.429 559.582 365.17 582.828 406.857C587.09 414.498 590.77 421.1 591.927 423.906C599.497 442.252 609.297 454.499 616.452 463.441C618.645 466.18 620.774 468.837 622.392 471.157C609.768 474.798 587.092 483.206 589.158 525.238C587.491 546.33 575.638 645.075 569.619 679.963C561.671 726.053 544.71 743.222 497.02 753.447ZM703.396 517.274C690.488 523.267 668.885 527.762 648.362 528.726C625.695 529.789 614.157 526.187 611.443 523.973C610.168 497.78 619.919 495.043 630.237 492.146C631.858 491.689 633.44 491.246 634.967 490.712C635.916 491.484 636.955 492.251 638.093 493.002C656.312 505.027 688.808 506.324 734.681 496.856C734.85 496.82 735.018 496.788 735.185 496.753C728.998 502.539 718.41 510.303 703.396 517.274Z" fill="white"/>
</g>
</g>
</svg>
