<svg width="800" height="800" viewBox="0 0 800 800" fill="none" xmlns="http://www.w3.org/2000/svg">
<g id="rea">
<g id="SVGRepo_iconCarrier">
<g id="Vector" filter="url(#filter0_d_1_8)">
<path d="M268.745 165.498C258.29 171.535 247.287 188.182 246.01 224.494C245.403 241.742 230.929 255.233 213.681 254.626C196.433 254.02 182.942 239.546 183.548 222.298C185.114 177.78 199.192 133.486 237.495 111.371C275.908 89.1939 321.452 99.2649 360.887 120.303C376.114 128.427 381.873 147.357 373.749 162.584C365.625 177.811 346.695 183.57 331.468 175.447C299.242 158.254 279.233 159.443 268.745 165.498ZM436.308 219.702C449.598 208.691 469.298 210.539 480.309 223.829C503.408 251.71 525.567 283.502 545.679 318.341C589.025 393.413 615.75 470.327 622.954 534.842C626.55 567.046 625.45 597.692 617.929 623.975C610.35 650.458 595.588 674.429 570.829 688.721C540.875 706.017 506.287 703.563 474.631 692.038C442.862 680.471 410.165 658.567 378.994 630.117C366.247 618.479 365.346 598.713 376.982 585.967C388.617 573.221 408.383 572.317 421.13 583.954C448.593 609.021 474.403 625.438 496.013 633.308C517.738 641.217 531.404 639.317 539.579 634.596C546.429 630.642 553.321 622.583 557.842 606.779C562.421 590.779 563.867 568.871 560.842 541.775C554.8 487.688 531.629 419.003 491.554 349.591C473.122 317.665 452.95 288.773 432.18 263.703C421.17 250.412 423.018 230.712 436.308 219.702Z" fill="#23ACC7"/>
<path d="M268.745 165.498C258.29 171.535 247.287 188.182 246.01 224.494C245.403 241.742 230.929 255.233 213.681 254.626C196.433 254.02 182.942 239.546 183.548 222.298C185.114 177.78 199.192 133.486 237.495 111.371C275.908 89.1939 321.452 99.2649 360.887 120.303C376.114 128.427 381.873 147.357 373.749 162.584C365.625 177.811 346.695 183.57 331.468 175.447C299.242 158.254 279.233 159.443 268.745 165.498ZM436.308 219.702C449.598 208.691 469.298 210.539 480.309 223.829C503.408 251.71 525.567 283.502 545.679 318.341C589.025 393.413 615.75 470.327 622.954 534.842C626.55 567.046 625.45 597.692 617.929 623.975C610.35 650.458 595.588 674.429 570.829 688.721C540.875 706.017 506.287 703.563 474.631 692.038C442.862 680.471 410.165 658.567 378.994 630.117C366.247 618.479 365.346 598.713 376.982 585.967C388.617 573.221 408.383 572.317 421.13 583.954C448.593 609.021 474.403 625.438 496.013 633.308C517.738 641.217 531.404 639.317 539.579 634.596C546.429 630.642 553.321 622.583 557.842 606.779C562.421 590.779 563.867 568.871 560.842 541.775C554.8 487.688 531.629 419.003 491.554 349.591C473.122 317.665 452.95 288.773 432.18 263.703C421.17 250.412 423.018 230.712 436.308 219.702Z" stroke="black" stroke-width="0.00666667"/>
</g>
<path id="Vector_2" d="M670.833 408.565C670.833 396.492 661.917 378.64 631.108 359.378C616.475 350.229 612.029 330.948 621.179 316.314C630.329 301.68 649.608 297.234 664.242 306.383C702.012 329.997 733.333 364.336 733.333 408.565C733.333 452.92 701.842 487.325 663.904 510.958C649.254 520.083 629.979 515.608 620.854 500.958C611.729 486.308 616.208 467.036 630.854 457.91C661.858 438.598 670.833 420.675 670.833 408.565ZM540.108 526.575C543 543.592 531.55 559.729 514.533 562.621C478.841 568.683 440.228 571.975 400 571.975C313.314 571.975 233.341 556.667 173.869 530.646C144.18 517.658 118.191 501.383 99.1887 481.729C80.0407 461.923 66.6667 437.153 66.6667 408.565C66.6667 373.979 86.0867 345.25 111.895 323.598C137.797 301.869 173.113 284.503 213.339 271.735C229.789 266.514 247.357 275.616 252.579 292.066C257.8 308.516 248.697 326.085 232.247 331.306C196.806 342.556 169.683 356.699 152.064 371.48C134.351 386.34 129.167 399.125 129.167 408.565C129.167 416.473 132.698 426.471 144.123 438.288C155.693 450.255 173.943 462.46 198.92 473.388C248.782 495.2 319.85 509.475 400 509.475C436.865 509.475 471.972 506.454 504.067 501C521.083 498.113 537.221 509.563 540.108 526.575Z" fill="#23ACC7" stroke="black" stroke-width="0.00666667"/>
<path id="Vector_3" d="M269.663 634.596C280.119 640.633 300.038 641.838 332.123 624.788C347.364 616.688 366.284 622.479 374.383 637.717C382.482 652.958 376.693 671.879 361.452 679.979C322.116 700.879 276.717 710.838 238.413 688.721C200.001 666.546 185.951 622.067 184.453 577.396C183.875 560.146 197.389 545.696 214.638 545.117C231.887 544.538 246.34 558.05 246.918 575.3C248.142 611.808 259.176 628.542 269.663 634.596ZM232.824 462.38C216.643 456.375 208.394 438.391 214.398 422.21C226.994 388.266 243.448 353.179 263.562 318.341C306.905 243.269 360.15 181.665 412.419 143.17C438.513 123.953 465.6 109.583 492.125 102.954C518.85 96.2746 546.992 97.0777 571.746 111.371C601.7 128.665 616.871 159.848 622.717 193.024C628.583 226.32 625.967 265.587 616.908 306.808C613.204 323.665 596.538 334.328 579.683 330.625C562.825 326.922 552.163 310.255 555.867 293.398C563.842 257.08 565.154 226.52 561.167 203.87C557.154 181.1 548.671 170.218 540.496 165.498C533.65 161.544 523.225 159.604 507.279 163.589C491.129 167.625 471.434 177.328 449.482 193.495C405.66 225.769 357.763 280.178 317.688 349.591C299.256 381.516 284.32 413.431 272.994 443.954C266.989 460.135 249.005 468.384 232.824 462.38Z" fill="#23ACC7" stroke="black" stroke-width="0.00666667"/>
<path id="Vector_4" d="M460.802 402.758C460.802 434.039 435.443 459.398 404.161 459.398C372.88 459.398 347.521 434.039 347.521 402.758C347.521 371.476 372.88 346.117 404.161 346.117C435.443 346.117 460.802 371.476 460.802 402.758Z" fill="#23ACC7" stroke="black" stroke-width="0.00666667"/>
</g>
</g>
<defs>
<filter id="filter0_d_1_8" x="179.525" y="98.8708" width="449.409" height="610.322" filterUnits="userSpaceOnUse" color-interpolation-filters="sRGB">
<feFlood flood-opacity="0" result="BackgroundImageFix"/>
<feColorMatrix in="SourceAlpha" type="matrix" values="0 0 0 0 0 0 0 0 0 0 0 0 0 0 0 0 0 0 127 0" result="hardAlpha"/>
<feOffset dy="4"/>
<feGaussianBlur stdDeviation="2"/>
<feComposite in2="hardAlpha" operator="out"/>
<feColorMatrix type="matrix" values="0 0 0 0 0 0 0 0 0 0 0 0 0 0 0 0 0 0 0.25 0"/>
<feBlend mode="normal" in2="BackgroundImageFix" result="effect1_dropShadow_1_8"/>
<feBlend mode="normal" in="SourceGraphic" in2="effect1_dropShadow_1_8" result="shape"/>
</filter>
</defs>
</svg>
